<svg width="376" height="347" viewBox="0 0 376 347" fill="none" xmlns="http://www.w3.org/2000/svg">
<path d="M65.5821 253.573C60.028 124.377 68.518 79.9226 100.298 53.5278C159.177 4.62792 254.438 54.454 294.709 85.4795C362.753 137.902 441.627 194.948 284.988 299.416C128.349 403.884 68.1037 312.229 65.5821 253.573Z" fill="#7A4BFC"/>
<path d="M1.58207 220.573C-3.97198 91.377 4.51796 46.9226 36.2982 20.5278C95.1767 -28.3721 190.438 21.454 230.709 52.4795C298.753 104.902 377.627 161.948 220.988 266.416C64.349 370.884 4.10368 279.229 1.58207 220.573Z" fill="#81FFE8"/>
<path fill-rule="evenodd" clip-rule="evenodd" d="M220.557 45.1363C224.183 47.6403 227.535 50.0877 230.574 52.428C231.657 53.2619 232.743 54.0971 233.83 54.9338C300.849 106.487 374.907 163.456 220.859 266.155C164.522 303.713 120.661 315.897 87.4755 313.374C73.1498 295.225 66.2403 272.704 65.4215 253.664C59.8707 124.595 68.3557 80.1847 100.117 53.8158C134.016 25.6733 179.982 30.2624 220.557 45.1363Z" fill="#73EDE8"/>
</svg>
